<?xml version="1.0" encoding="UTF-8"?>
<svg id="Ebene_1" data-name="Ebene 1" xmlns="http://www.w3.org/2000/svg" viewBox="0 0 19.24 19.73">
  <defs>
    <style>
      .cls-1, .cls-2 {
        fill: #fff;
      }

      .cls-2 {
        stroke: #1d1d1b;
        stroke-miterlimit: 10;
      }

      .cls-3 {
        fill: #1d1d1b;
      }
    </style>
  </defs>
  <g>
    <path class="cls-1" d="m13.03,10.51s0,.01,0,.01v-.02h0Z"/>
    <path class="cls-3" d="m13.02,10.5v.02s0-.01,0-.01h0Z"/>
  </g>
  <path class="cls-2" d="m6.62,5.85c-.03-2.84,1.25-5.16,3.07-5.34,1.99-.21,3.88,2.21,4.2,5.4.06.54.07,1.07.02,1.58"/>
  <g>
    <path class="cls-1" d="m13.03,10.51s0,.01,0,.01v-.02h0Z"/>
    <path class="cls-3" d="m13.02,10.5v.02s0-.01,0-.01h0Z"/>
  </g>
  <path class="cls-2" d="m12.76,9.8c.3-.37.62-.69.95-.95,1-.83,2.12-1.15,3.09-.8,1.88.7,2.5,3.7,1.4,6.71-1.11,3.01-3.53,4.89-5.41,4.19-.28-.1-.53-.26-.75-.46"/>
  <path class="cls-2" d="m4.9,17.07c-.05.02-.1.02-.15.03-2,.21-3.88-2.21-4.2-5.4-.33-3.19,1.02-5.95,3.01-6.15,1.17-.12,2.29.65,3.09,1.95"/>
  <g>
    <path class="cls-1" d="m8.86,19.23c-1.84,0-3.39-2.62-3.39-5.73s1.55-5.72,3.39-5.72c1.23,0,2.37,1.15,2.96,2.99.28.83.43,1.77.43,2.73,0,1.58-.4,3.11-1.1,4.19-.63.99-1.45,1.54-2.29,1.54Z"/>
    <path class="cls-3" d="m8.86,8.29c.99,0,1.97,1.04,2.49,2.65.26.77.4,1.66.4,2.56,0,1.49-.37,2.92-1.02,3.92-.53.83-1.21,1.31-1.87,1.31-1.37,0-2.89-2.15-2.89-5.23s1.52-5.22,2.89-5.22m0-1c-2.14,0-3.89,2.79-3.89,6.22s1.75,6.23,3.89,6.23c1.05,0,2.02-.68,2.71-1.77.73-1.13,1.18-2.71,1.18-4.46,0-1.04-.16-2.03-.45-2.88-.64-1.98-1.94-3.33-3.44-3.33h0Z"/>
  </g>
  <polyline class="cls-2" points="6.1 10.5 8.03 11.72 9.04 11.11"/>
  <polyline class="cls-2" points="18.51 13.74 16.14 13.01 16.14 11.48"/>
  <polyline class="cls-2" points=".74 12.87 3.07 13.98 3.8 13.42"/>
</svg>